<?xml version="1.0" encoding="utf-8"?>

<!DOCTYPE svg PUBLIC "-//W3C//DTD SVG 1.1//EN" "http://www.w3.org/Graphics/SVG/1.1/DTD/svg11.dtd">
<!-- Uploaded to: SVG Repo, www.svgrepo.com, Generator: SVG Repo Mixer Tools -->
<svg height="800px" width="800px" version="1.1" id="_x32_" xmlns="http://www.w3.org/2000/svg" xmlns:xlink="http://www.w3.org/1999/xlink" 
	 viewBox="0 0 512 512"  xml:space="preserve">
<style type="text/css">
	.st0{fill:#000000;}
</style>
<g>
	<path class="st0" d="M276.773,347.142c82.467-0.009,149.298-66.84,149.307-149.303c0-3.94-0.292-7.812-0.592-11.675
		c28.053-48.096,3.234-95.558-66.778-132.753C307.426-37.498,186.215,2.126,137.264,65.068
		c-48.951,62.934-79.254,39.626-67.599,83.916c8.124,30.879,39.775,48.997,58.219,57.15
		C132.224,284.716,197.107,347.133,276.773,347.142z M157.724,174.571c65.538-3.363,98.211-90.491,163.69-79.2
		c18.227,52.862,49.268,87.078,76.437,97.302c0.071,1.727,0.259,3.422,0.259,5.166c-0.009,33.55-13.558,63.794-35.54,85.792
		c-21.999,21.982-52.248,35.535-85.797,35.544c-33.549-0.009-63.798-13.562-85.796-35.544
		c-21.978-21.999-35.527-52.243-35.54-85.792C155.437,189.869,156.259,182.099,157.724,174.571z"/>
	<path class="st0" d="M223.612,212.16c7.686,0,13.913-6.234,13.913-13.929c0-7.686-6.227-13.913-13.913-13.913
		s-13.912,6.227-13.912,13.913C209.7,205.926,215.926,212.16,223.612,212.16z"/>
	<path class="st0" d="M329.935,212.16c7.686,0,13.916-6.234,13.916-13.929c0-7.686-6.23-13.913-13.916-13.913
		c-7.682,0-13.912,6.227-13.912,13.913C316.023,205.926,322.253,212.16,329.935,212.16z"/>
	<path class="st0" d="M242.974,281.295c19.499-2.312,29.23-14.563,33.799-22.508c4.57,7.945,14.301,20.196,33.8,22.508
		c34.384,4.08,38.461-26.806,38.461-26.806s-16.429,5.241-31.467-9.322c-18.649-18.068-35.954-7.144-40.794-0.584
		c-4.84-6.56-22.145-17.484-40.793,0.584c-15.039,14.563-31.467,9.322-31.467,9.322S208.59,285.375,242.974,281.295z"/>
	<path class="st0" d="M394.525,316.029c0,0-18.56,21.29-50.457,35.66l-67.295,98.019l-67.294-98.019
		c-31.897-14.371-50.457-35.66-50.457-35.66c-12.431,12.434-63.748,120.443-46.965,142.81C128.836,481.214,180.554,512,276.773,512
		c96.212,0,147.939-30.786,164.717-53.161C458.273,436.472,406.956,328.464,394.525,316.029z"/>
	<polygon class="st0" points="263.954,410.059 276.773,428.728 289.592,410.059 289.592,357.607 263.954,357.607 	"/>
</g>
</svg>